<svg id="visual" viewBox="0 0 960 540" width="960" height="540" xmlns="http://www.w3.org/2000/svg" xmlns:xlink="http://www.w3.org/1999/xlink" version="1.1"><rect x="0" y="0" width="960" height="540" fill="#001220"></rect><defs><linearGradient id="grad1_0" x1="43.8%" y1="0%" x2="100%" y2="100%"><stop offset="14.444444444444446%" stop-color="#fa7268" stop-opacity="1"></stop><stop offset="85.55555555555554%" stop-color="#fa7268" stop-opacity="1"></stop></linearGradient></defs><defs><linearGradient id="grad1_1" x1="43.8%" y1="0%" x2="100%" y2="100%"><stop offset="14.444444444444446%" stop-color="#fa7268" stop-opacity="1"></stop><stop offset="85.55555555555554%" stop-color="#bd5079" stop-opacity="1"></stop></linearGradient></defs><defs><linearGradient id="grad1_2" x1="43.8%" y1="0%" x2="100%" y2="100%"><stop offset="14.444444444444446%" stop-color="#723f71" stop-opacity="1"></stop><stop offset="85.55555555555554%" stop-color="#bd5079" stop-opacity="1"></stop></linearGradient></defs><defs><linearGradient id="grad1_3" x1="43.8%" y1="0%" x2="100%" y2="100%"><stop offset="14.444444444444446%" stop-color="#723f71" stop-opacity="1"></stop><stop offset="85.55555555555554%" stop-color="#2c2c4f" stop-opacity="1"></stop></linearGradient></defs><defs><linearGradient id="grad1_4" x1="43.8%" y1="0%" x2="100%" y2="100%"><stop offset="14.444444444444446%" stop-color="#001220" stop-opacity="1"></stop><stop offset="85.55555555555554%" stop-color="#2c2c4f" stop-opacity="1"></stop></linearGradient></defs><defs><linearGradient id="grad2_0" x1="0%" y1="0%" x2="56.3%" y2="100%"><stop offset="14.444444444444446%" stop-color="#fa7268" stop-opacity="1"></stop><stop offset="85.55555555555554%" stop-color="#fa7268" stop-opacity="1"></stop></linearGradient></defs><defs><linearGradient id="grad2_1" x1="0%" y1="0%" x2="56.3%" y2="100%"><stop offset="14.444444444444446%" stop-color="#bd5079" stop-opacity="1"></stop><stop offset="85.55555555555554%" stop-color="#fa7268" stop-opacity="1"></stop></linearGradient></defs><defs><linearGradient id="grad2_2" x1="0%" y1="0%" x2="56.3%" y2="100%"><stop offset="14.444444444444446%" stop-color="#bd5079" stop-opacity="1"></stop><stop offset="85.55555555555554%" stop-color="#723f71" stop-opacity="1"></stop></linearGradient></defs><defs><linearGradient id="grad2_3" x1="0%" y1="0%" x2="56.3%" y2="100%"><stop offset="14.444444444444446%" stop-color="#2c2c4f" stop-opacity="1"></stop><stop offset="85.55555555555554%" stop-color="#723f71" stop-opacity="1"></stop></linearGradient></defs><defs><linearGradient id="grad2_4" x1="0%" y1="0%" x2="56.3%" y2="100%"><stop offset="14.444444444444446%" stop-color="#2c2c4f" stop-opacity="1"></stop><stop offset="85.55555555555554%" stop-color="#001220" stop-opacity="1"></stop></linearGradient></defs><g transform="translate(960, 0)"><path d="M0 243C-40.5 233.7 -81.1 224.3 -118.5 205.2C-155.9 186.2 -190.2 157.3 -210.4 121.5C-230.7 85.7 -236.8 42.8 -243 0L0 0Z" fill="#122038"></path><path d="M0 194.4C-32.4 186.9 -64.9 179.5 -94.8 164.2C-124.7 148.9 -152.2 125.9 -168.4 97.2C-184.5 68.5 -189.5 34.3 -194.4 0L0 0Z" fill="#4d3763"></path><path d="M0 145.8C-24.3 140.2 -48.6 134.6 -71.1 123.1C-93.6 111.7 -114.1 94.4 -126.3 72.9C-138.4 51.4 -142.1 25.7 -145.8 0L0 0Z" fill="#984778"></path><path d="M0 97.2C-16.2 93.5 -32.4 89.7 -47.4 82.1C-62.4 74.5 -76.1 62.9 -84.2 48.6C-92.3 34.3 -94.7 17.1 -97.2 0L0 0Z" fill="#df5e73"></path><path d="M0 48.6C-8.1 46.7 -16.2 44.9 -23.7 41C-31.2 37.2 -38 31.5 -42.1 24.3C-46.1 17.1 -47.4 8.6 -48.6 0L0 0Z" fill="#fa7268"></path></g><g transform="translate(0, 540)"><path d="M0 -243C43.1 -237 86.1 -230.9 121.5 -210.4C156.9 -189.9 184.5 -155 203.5 -117.5C222.5 -80 232.7 -40 243 0L0 0Z" fill="#122038"></path><path d="M0 -194.4C34.5 -189.6 68.9 -184.8 97.2 -168.4C125.5 -152 147.6 -124 162.8 -94C178 -64 186.2 -32 194.4 0L0 0Z" fill="#4d3763"></path><path d="M0 -145.8C25.8 -142.2 51.7 -138.6 72.9 -126.3C94.1 -114 110.7 -93 122.1 -70.5C133.5 -48 139.6 -24 145.8 0L0 0Z" fill="#984778"></path><path d="M0 -97.2C17.2 -94.8 34.5 -92.4 48.6 -84.2C62.7 -76 73.8 -62 81.4 -47C89 -32 93.1 -16 97.2 0L0 0Z" fill="#df5e73"></path><path d="M0 -48.6C8.6 -47.4 17.2 -46.2 24.3 -42.1C31.4 -38 36.9 -31 40.7 -23.5C44.5 -16 46.5 -8 48.6 0L0 0Z" fill="#fa7268"></path></g></svg>