<svg id="visual" viewBox="0 0 960 540" width="960" height="540" xmlns="http://www.w3.org/2000/svg" xmlns:xlink="http://www.w3.org/1999/xlink" version="1.1"><rect x="0" y="0" width="960" height="540" fill="#001220"></rect><defs><linearGradient id="grad1_0" x1="43.8%" y1="0%" x2="100%" y2="100%"><stop offset="14.444444444444446%" stop-color="#fa7268" stop-opacity="1"></stop><stop offset="85.55555555555554%" stop-color="#fa7268" stop-opacity="1"></stop></linearGradient></defs><defs><linearGradient id="grad1_1" x1="43.8%" y1="0%" x2="100%" y2="100%"><stop offset="14.444444444444446%" stop-color="#fa7268" stop-opacity="1"></stop><stop offset="85.55555555555554%" stop-color="#bd5079" stop-opacity="1"></stop></linearGradient></defs><defs><linearGradient id="grad1_2" x1="43.8%" y1="0%" x2="100%" y2="100%"><stop offset="14.444444444444446%" stop-color="#723f71" stop-opacity="1"></stop><stop offset="85.55555555555554%" stop-color="#bd5079" stop-opacity="1"></stop></linearGradient></defs><defs><linearGradient id="grad1_3" x1="43.8%" y1="0%" x2="100%" y2="100%"><stop offset="14.444444444444446%" stop-color="#723f71" stop-opacity="1"></stop><stop offset="85.55555555555554%" stop-color="#2c2c4f" stop-opacity="1"></stop></linearGradient></defs><defs><linearGradient id="grad1_4" x1="43.8%" y1="0%" x2="100%" y2="100%"><stop offset="14.444444444444446%" stop-color="#001220" stop-opacity="1"></stop><stop offset="85.55555555555554%" stop-color="#2c2c4f" stop-opacity="1"></stop></linearGradient></defs><defs><linearGradient id="grad2_0" x1="0%" y1="0%" x2="56.3%" y2="100%"><stop offset="14.444444444444446%" stop-color="#fa7268" stop-opacity="1"></stop><stop offset="85.55555555555554%" stop-color="#fa7268" stop-opacity="1"></stop></linearGradient></defs><defs><linearGradient id="grad2_1" x1="0%" y1="0%" x2="56.3%" y2="100%"><stop offset="14.444444444444446%" stop-color="#bd5079" stop-opacity="1"></stop><stop offset="85.55555555555554%" stop-color="#fa7268" stop-opacity="1"></stop></linearGradient></defs><defs><linearGradient id="grad2_2" x1="0%" y1="0%" x2="56.3%" y2="100%"><stop offset="14.444444444444446%" stop-color="#bd5079" stop-opacity="1"></stop><stop offset="85.55555555555554%" stop-color="#723f71" stop-opacity="1"></stop></linearGradient></defs><defs><linearGradient id="grad2_3" x1="0%" y1="0%" x2="56.3%" y2="100%"><stop offset="14.444444444444446%" stop-color="#2c2c4f" stop-opacity="1"></stop><stop offset="85.55555555555554%" stop-color="#723f71" stop-opacity="1"></stop></linearGradient></defs><defs><linearGradient id="grad2_4" x1="0%" y1="0%" x2="56.3%" y2="100%"><stop offset="14.444444444444446%" stop-color="#2c2c4f" stop-opacity="1"></stop><stop offset="85.55555555555554%" stop-color="#001220" stop-opacity="1"></stop></linearGradient></defs><g transform="translate(960, 0)"><path d="M0 189C-31.4 181.6 -62.9 174.2 -92 159.3C-121.1 144.5 -147.9 122.3 -163.7 94.5C-179.5 66.7 -184.2 33.4 -189 0L0 0Z" fill="#122038"></path><path d="M0 151.2C-25.2 145.3 -50.3 139.3 -73.6 127.5C-96.9 115.6 -118.3 97.8 -130.9 75.6C-143.6 53.4 -147.4 26.7 -151.2 0L0 0Z" fill="#4d3763"></path><path d="M0 113.4C-18.9 109 -37.7 104.5 -55.2 95.6C-72.7 86.7 -88.7 73.4 -98.2 56.7C-107.7 40 -110.5 20 -113.4 0L0 0Z" fill="#984778"></path><path d="M0 75.6C-12.6 72.6 -25.2 69.7 -36.8 63.7C-48.4 57.8 -59.2 48.9 -65.5 37.8C-71.8 26.7 -73.7 13.3 -75.6 0L0 0Z" fill="#df5e73"></path><path d="M0 37.8C-6.3 36.3 -12.6 34.8 -18.4 31.9C-24.2 28.9 -29.6 24.5 -32.7 18.9C-35.9 13.3 -36.8 6.7 -37.8 0L0 0Z" fill="#fa7268"></path></g><g transform="translate(0, 540)"><path d="M0 -189C31.4 -181.6 62.9 -174.2 92 -159.3C121.1 -144.5 147.9 -122.3 163.7 -94.5C179.5 -66.7 184.2 -33.4 189 0L0 0Z" fill="#122038"></path><path d="M0 -151.2C25.2 -145.3 50.3 -139.3 73.6 -127.5C96.9 -115.6 118.3 -97.8 130.9 -75.6C143.6 -53.4 147.4 -26.7 151.2 0L0 0Z" fill="#4d3763"></path><path d="M0 -113.4C18.9 -109 37.7 -104.5 55.2 -95.6C72.7 -86.7 88.7 -73.4 98.2 -56.7C107.7 -40 110.5 -20 113.4 0L0 0Z" fill="#984778"></path><path d="M0 -75.6C12.6 -72.6 25.2 -69.7 36.8 -63.7C48.4 -57.8 59.2 -48.9 65.5 -37.8C71.8 -26.7 73.7 -13.3 75.6 0L0 0Z" fill="#df5e73"></path><path d="M0 -37.8C6.3 -36.3 12.6 -34.8 18.4 -31.9C24.2 -28.9 29.6 -24.5 32.7 -18.9C35.9 -13.3 36.8 -6.7 37.8 0L0 0Z" fill="#fa7268"></path></g></svg>