<svg id="visual" viewBox="0 0 960 540" width="960" height="540" xmlns="http://www.w3.org/2000/svg" xmlns:xlink="http://www.w3.org/1999/xlink" version="1.1"><rect x="0" y="0" width="960" height="540" fill="#001220"></rect><path d="M0 264L40 263.5C80 263 160 262 240 254.8C320 247.7 400 234.3 480 237.3C560 240.3 640 259.7 720 259.8C800 260 880 241 920 231.5L960 222L960 541L920 541C880 541 800 541 720 541C640 541 560 541 480 541C400 541 320 541 240 541C160 541 80 541 40 541L0 541Z" fill="#fa7268"></path><path d="M0 351L40 353C80 355 160 359 240 363.7C320 368.3 400 373.7 480 374.7C560 375.7 640 372.3 720 361C800 349.7 880 330.3 920 320.7L960 311L960 541L920 541C880 541 800 541 720 541C640 541 560 541 480 541C400 541 320 541 240 541C160 541 80 541 40 541L0 541Z" fill="#e34c67"></path><path d="M0 439L40 434.2C80 429.3 160 419.7 240 424.7C320 429.7 400 449.3 480 449.8C560 450.3 640 431.7 720 428C800 424.3 880 435.7 920 441.3L960 447L960 541L920 541C880 541 800 541 720 541C640 541 560 541 480 541C400 541 320 541 240 541C160 541 80 541 40 541L0 541Z" fill="#c62368"></path></svg>