<svg id="visual" viewBox="0 0 960 540" width="960" height="540" class="w-full" xmlns="http://www.w3.org/2000/svg" xmlns:xlink="http://www.w3.org/1999/xlink" version="1.1"><rect x="0" y="0" width="960" height="540" fill="#001220"></rect><path d="M0 241L40 246C80 251 160 261 240 256.7C320 252.3 400 233.7 480 222.5C560 211.3 640 207.7 720 216C800 224.3 880 244.7 920 254.8L960 265L960 541L920 541C880 541 800 541 720 541C640 541 560 541 480 541C400 541 320 541 240 541C160 541 80 541 40 541L0 541Z" fill="#fa7268"></path><path d="M0 349L40 343.2C80 337.3 160 325.7 240 322.5C320 319.3 400 324.7 480 330.5C560 336.3 640 342.7 720 339.5C800 336.3 880 323.7 920 317.3L960 311L960 541L920 541C880 541 800 541 720 541C640 541 560 541 480 541C400 541 320 541 240 541C160 541 80 541 40 541L0 541Z" fill="#e34c67"></path><path d="M0 405L40 414.3C80 423.7 160 442.3 240 444.8C320 447.3 400 433.7 480 427.3C560 421 640 422 720 416.7C800 411.3 880 399.7 920 393.8L960 388L960 541L920 541C880 541 800 541 720 541C640 541 560 541 480 541C400 541 320 541 240 541C160 541 80 541 40 541L0 541Z" fill="#c62368"></path></svg>